<?xml version="1.0" encoding="UTF-8"?>
<svg id="Layer_2" data-name="Layer 2" xmlns="http://www.w3.org/2000/svg" viewBox="0 0 339.06 85.01" fill="#FFFFFF">
  <circle cx="151.3" cy="55.48" r="6.68"/>
  <rect x="33.2" y="25.57" width="5.1" height="38.76"/>
  <path d="M52.9,51.94c0,1.81.27,3.55.78,5.19,2.13,6.85,9.38,13.06,16.86,12.2,3.58-.41,6.52-2.78,6.52-6.58,0-.1,0-.2,0-.3-.16-3.55-3.09-6.38-6.67-6.38s-6.52,2.83-6.67,6.38c-3.47-2.21-5.78-6.1-5.78-10.51v-9.16h-5.04v9.16Z"/>
  <polygon points="71.96 25.57 46.56 64.33 33.2 64.33 58.59 25.57 71.96 25.57"/>
  <g>
    <rect x="181.29" y="23.4" width="5.1" height="38.76"/>
    <rect x="214.94" y="23.4" width="5.1" height="38.76"/>
    <polygon points="181.29 23.4 206.68 62.16 220.04 62.16 194.65 23.4 181.29 23.4"/>
  </g>
  <path d="M121.32,25.57v26.58c0,6.73-5.46,12.19-12.19,12.19h-14.39c-6.73,0-12.19-5.46-12.19-12.19v-26.58h5.1v17.28c0,4.49,3.64,8.12,8.12,8.12h12.3c4.49,0,8.12-3.64,8.12-8.12v-17.28h5.1Z"/>
  <path d="M131.92,62.16v-26.58c0-6.73,5.46-12.19,12.19-12.19h14.39c6.73,0,12.19,5.46,12.19,12.19v26.58h-5.1v-17.28c0-4.49-3.64-8.12-8.12-8.12h-12.3c-4.49,0-8.12,3.64-8.12,8.12v17.28h-5.1Z"/>
  <g>
    <path d="M305.25,55.48c0,3.69-2.99,6.68-6.68,6.68s-6.68-2.99-6.68-6.68,2.99-6.68,6.68-6.68,6.68,2.99,6.68,6.68Z"/>
    <path d="M279.19,62.16v-26.58c0-6.73,5.46-12.19,12.19-12.19h14.39c6.73,0,12.19,5.46,12.19,12.19v26.58h-5.1v-17.28c0-4.49-3.64-8.12-8.12-8.12h-12.3c-4.49,0-8.12,3.64-8.12,8.12v17.28h-5.1Z"/>
  </g>
  <g>
    <rect x="247.48" y="23.4" width="5.1" height="38.76"/>
    <rect x="230.65" y="23.4" width="38.76" height="13.36"/>
  </g>
</svg>